<svg xmlns="http://www.w3.org/2000/svg" width="1200" height="620" viewBox="0 0 1200 620">
<defs><marker id="arrow" markerWidth="10" markerHeight="10" refX="8" refY="3" orient="auto"><path d="M0,0 L0,6 L9,3 z" fill="#68758a"/></marker></defs>
<rect width="100%" height="100%" fill="#ffffff"/>
<text x="60" y="58" font-family="Arial, sans-serif" font-size="30" font-weight="700" fill="#172033">Accuracy-latency-memory Pareto frontier</text>
<text x="60" y="90" font-family="Arial, sans-serif" font-size="17" fill="#526077">A candidate is dominated when another is no worse on every objective and better on at least one.</text>
<line x1="115" y1="510" x2="1090" y2="510" stroke="#526077" stroke-width="2"/>
<line x1="115" y1="510" x2="115" y2="135" stroke="#526077" stroke-width="2"/>
<path d="M230 205 C380 230, 505 280, 650 335 C785 385, 900 430, 1035 470" fill="none" stroke="#16a34a" stroke-width="5" stroke-dasharray="9 7"/>
<circle cx="230" cy="205" r="13" fill="#2563eb"/>
<text x="248" y="211" font-family="Arial" font-size="17" fill="#172033">FP32</text>
<circle cx="390" cy="245" r="13" fill="#2563eb"/>
<text x="408" y="251" font-family="Arial" font-size="17" fill="#172033">INT8</text>
<circle cx="520" cy="300" r="13" fill="#2563eb"/>
<text x="538" y="306" font-family="Arial" font-size="17" fill="#172033">QAT</text>
<circle cx="680" cy="345" r="13" fill="#2563eb"/>
<text x="698" y="351" font-family="Arial" font-size="17" fill="#172033">INT4</text>
<circle cx="820" cy="410" r="13" fill="#2563eb"/>
<text x="838" y="416" font-family="Arial" font-size="17" fill="#172033">Student</text>
<circle cx="610" cy="445" r="13" fill="#dc2626"/>
<text x="628" y="451" font-family="Arial" font-size="17" fill="#172033">Dominated</text>
<text x="470" y="575" font-family="Arial" font-size="18" fill="#526077">latency and memory cost increase -></text>
<text x="40" y="365" transform="rotate(-90 40 365)" font-family="Arial" font-size="18" fill="#526077">accuracy increases -></text>
</svg>